<svg width="176" height="41" viewBox="0 0 176 41" fill="none" xmlns="http://www.w3.org/2000/svg">
<rect width="40" height="40" rx="6" fill="url(#paint0_linear_10400_100)"/>
<path d="M63.088 33.36C61.072 33.36 59.128 32.964 57.256 32.172C55.384 31.38 53.728 30.264 52.288 28.824L54.592 26.16C55.96 27.504 57.352 28.5 58.768 29.148C60.208 29.796 61.708 30.12 63.268 30.12C64.492 30.12 65.56 29.952 66.472 29.616C67.408 29.256 68.128 28.752 68.632 28.104C69.136 27.456 69.388 26.724 69.388 25.908C69.388 24.78 68.992 23.916 68.2 23.316C67.408 22.716 66.1 22.26 64.276 21.948L60.064 21.264C57.76 20.856 56.032 20.112 54.88 19.032C53.752 17.952 53.188 16.512 53.188 14.712C53.188 13.272 53.572 12.012 54.34 10.932C55.108 9.828 56.188 8.976 57.58 8.376C58.996 7.776 60.628 7.476 62.476 7.476C64.3 7.476 66.088 7.776 67.84 8.376C69.616 8.952 71.212 9.792 72.628 10.896L70.54 13.776C67.828 11.712 65.08 10.68 62.296 10.68C61.192 10.68 60.232 10.836 59.416 11.148C58.6 11.46 57.964 11.904 57.508 12.48C57.052 13.032 56.824 13.68 56.824 14.424C56.824 15.456 57.172 16.248 57.868 16.8C58.564 17.328 59.716 17.712 61.324 17.952L65.392 18.636C68.056 19.068 70.012 19.848 71.26 20.976C72.508 22.104 73.132 23.652 73.132 25.62C73.132 27.156 72.712 28.512 71.872 29.688C71.032 30.84 69.856 31.74 68.344 32.388C66.832 33.036 65.08 33.36 63.088 33.36ZM76.2021 33V7.8L79.8021 7.008V16.548C81.2181 15.06 83.0541 14.316 85.3101 14.316C86.7261 14.316 87.9621 14.616 89.0181 15.216C90.0981 15.816 90.9381 16.656 91.5381 17.736C92.1621 18.816 92.4741 20.064 92.4741 21.48V33H88.8741V22.092C88.8741 20.652 88.4661 19.524 87.6501 18.708C86.8341 17.868 85.7181 17.448 84.3021 17.448C83.3421 17.448 82.4781 17.652 81.7101 18.06C80.9421 18.468 80.3061 19.056 79.8021 19.824V33H76.2021ZM105.34 33.36C103.564 33.36 101.944 32.94 100.48 32.1C99.0399 31.26 97.8999 30.12 97.0599 28.68C96.2199 27.24 95.7999 25.632 95.7999 23.856C95.7999 22.08 96.2199 20.472 97.0599 19.032C97.8999 17.592 99.0399 16.452 100.48 15.612C101.944 14.748 103.564 14.316 105.34 14.316C107.14 14.316 108.76 14.748 110.2 15.612C111.64 16.452 112.78 17.592 113.62 19.032C114.46 20.472 114.88 22.08 114.88 23.856C114.88 25.632 114.46 27.24 113.62 28.68C112.78 30.12 111.64 31.26 110.2 32.1C108.76 32.94 107.14 33.36 105.34 33.36ZM105.34 30.192C106.468 30.192 107.488 29.916 108.4 29.364C109.312 28.788 110.032 28.02 110.56 27.06C111.088 26.1 111.352 25.02 111.352 23.82C111.352 22.644 111.076 21.588 110.524 20.652C109.996 19.692 109.276 18.924 108.364 18.348C107.476 17.772 106.468 17.484 105.34 17.484C104.212 17.484 103.192 17.772 102.28 18.348C101.392 18.924 100.672 19.692 100.12 20.652C99.5919 21.588 99.3279 22.644 99.3279 23.82C99.3279 25.02 99.5919 26.1 100.12 27.06C100.648 28.02 101.368 28.788 102.28 29.364C103.192 29.916 104.212 30.192 105.34 30.192ZM118.284 40.344V14.676H121.848V16.44C123.384 15.072 125.256 14.388 127.464 14.388C129.192 14.388 130.752 14.808 132.144 15.648C133.56 16.488 134.676 17.616 135.492 19.032C136.308 20.448 136.716 22.044 136.716 23.82C136.716 25.596 136.296 27.204 135.456 28.644C134.64 30.06 133.524 31.188 132.108 32.028C130.716 32.868 129.144 33.288 127.392 33.288C126.384 33.288 125.412 33.132 124.476 32.82C123.54 32.484 122.676 32.016 121.884 31.416V40.344H118.284ZM126.996 30.156C128.172 30.156 129.216 29.88 130.128 29.328C131.064 28.776 131.808 28.032 132.36 27.096C132.912 26.136 133.188 25.056 133.188 23.856C133.188 22.656 132.912 21.576 132.36 20.616C131.808 19.656 131.064 18.9 130.128 18.348C129.216 17.796 128.172 17.52 126.996 17.52C125.964 17.52 125.004 17.712 124.116 18.096C123.228 18.48 122.484 19.02 121.884 19.716V27.996C122.484 28.668 123.228 29.196 124.116 29.58C125.028 29.964 125.988 30.156 126.996 30.156ZM140.151 33V7.8L143.751 7.116V22.704L152.643 14.676H156.855L147.387 23.244L157.359 33H152.607L143.751 24.396V33H140.151ZM164.299 33.324C162.979 33.324 161.815 33.096 160.807 32.64C159.799 32.16 159.007 31.5 158.431 30.66C157.855 29.82 157.567 28.848 157.567 27.744C157.567 26.016 158.227 24.66 159.547 23.676C160.867 22.668 162.679 22.164 164.983 22.164C166.783 22.164 168.451 22.512 169.987 23.208V21.264C169.987 19.944 169.603 18.96 168.835 18.312C168.091 17.664 166.987 17.34 165.523 17.34C164.683 17.34 163.807 17.472 162.895 17.736C161.983 17.976 160.963 18.36 159.835 18.888L158.503 16.188C159.895 15.54 161.191 15.072 162.391 14.784C163.591 14.472 164.803 14.316 166.027 14.316C168.403 14.316 170.239 14.88 171.535 16.008C172.855 17.136 173.515 18.744 173.515 20.832V33H169.987V31.416C169.171 32.064 168.295 32.544 167.359 32.856C166.423 33.168 165.403 33.324 164.299 33.324ZM161.023 27.672C161.023 28.56 161.395 29.28 162.139 29.832C162.907 30.384 163.903 30.66 165.127 30.66C166.087 30.66 166.963 30.516 167.755 30.228C168.571 29.94 169.315 29.496 169.987 28.896V25.8C169.291 25.392 168.559 25.104 167.791 24.936C167.047 24.744 166.207 24.648 165.271 24.648C163.951 24.648 162.907 24.924 162.139 25.476C161.395 26.004 161.023 26.736 161.023 27.672Z" fill="#0C2146"/>
<path d="M19.9223 31.32C18.1089 31.32 16.3383 30.9893 14.6102 30.328C12.8822 29.6453 11.3462 28.6853 10.0023 27.448L12.6583 24.12C13.9596 25.272 15.2076 26.104 16.4023 26.616C17.6183 27.128 18.8983 27.384 20.2423 27.384C21.1809 27.384 21.9916 27.2773 22.6743 27.064C23.3569 26.8293 23.8796 26.4987 24.2423 26.072C24.6263 25.6453 24.8183 25.144 24.8183 24.568C24.8183 23.8 24.5409 23.2133 23.9863 22.808C23.4316 22.3813 22.4823 22.0507 21.1383 21.816L16.6903 21.048C14.7916 20.728 13.3409 20.056 12.3383 19.032C11.3569 18.008 10.8663 16.6853 10.8663 15.064C10.8663 13.6773 11.2183 12.472 11.9223 11.448C12.6476 10.424 13.6609 9.64533 14.9623 9.112C16.2849 8.55733 17.8529 8.28 19.6663 8.28C21.3089 8.28 22.9409 8.55733 24.5623 9.112C26.2049 9.66667 27.6556 10.4347 28.9143 11.416L26.4183 14.872C24.0716 13.08 21.7143 12.184 19.3463 12.184C18.5143 12.184 17.7889 12.2907 17.1703 12.504C16.5516 12.7173 16.0716 13.016 15.7303 13.4C15.4103 13.7627 15.2503 14.2 15.2503 14.712C15.2503 15.3947 15.4956 15.928 15.9863 16.312C16.4769 16.6747 17.2983 16.952 18.4503 17.144L22.6743 17.848C24.9143 18.2107 26.5889 18.9253 27.6983 19.992C28.8076 21.0373 29.3623 22.424 29.3623 24.152C29.3623 25.6027 28.9783 26.872 28.2103 27.96C27.4423 29.0267 26.3436 29.8587 24.9143 30.456C23.5063 31.032 21.8423 31.32 19.9223 31.32Z" fill="white"/>
<defs>
<linearGradient id="paint0_linear_10400_100" x1="0" y1="20" x2="40" y2="20" gradientUnits="userSpaceOnUse">
<stop stop-color="#2979FF"/>
<stop offset="1" stop-color="#4C589E"/>
</linearGradient>
</defs>
</svg>
